PathFileType  4	(X/Y/Z) C:\Users\antoi\Documents\MyRepositories\mobilecap\ResultsAnalysis
DataRate	CameraRate	NumFrames	NumMarkers	Units	OrigDataRate	OrigDataStartFrame	OrigNumFrames
100.0	100.0	4	51	mm	100.0	431	861
Frame#	Time	r_knee			r_shank_antsup			r_ankle			r_calc			r_5meta			r_toe			L_knee			L_shank_antsup			L_ankle			L_calc			L_5meta			L_toe			r_sh2			r_sh3			r_sh4			L_sh2			L_sh3			r_thigh1			r_thigh2			r_thigh3			r_thigh4			r_thigh5			L_thigh1			L_thigh2			L_thigh3			L_thigh4			r.ASIS			r.PSIS			L.ASIS			L.PSIS			C7			R_Shoulder			L_Shoulder			R_Sternum			L_Sternum			R_humerus			R_elbow_med			R_elbow_lat			R_forearm			R_wrist_radius			R_wrist_ulna			L_humerus			L_elbow_med			L_elbow_lat			L_forearm			L_wrist_radius			L_wrist_ulna			R_HJC			L_HJC			R_HJC_reg			L_HJC_reg			
		X1	Y1	Z1	X2	Y2	Z2	X3	Y3	Z3	X4	Y4	Z4	X5	Y5	Z5	X6	Y6	Z6	X7	Y7	Z7	X8	Y8	Z8	X9	Y9	Z9	X10	Y10	Z10	X11	Y11	Z11	X12	Y12	Z12	X13	Y13	Z13	X14	Y14	Z14	X15	Y15	Z15	X16	Y16	Z16	X17	Y17	Z17	X18	Y18	Z18	X19	Y19	Z19	X20	Y20	Z20	X21	Y21	Z21	X22	Y22	Z22	X23	Y23	Z23	X24	Y24	Z24	X25	Y25	Z25	X26	Y26	Z26	X27	Y27	Z27	X28	Y28	Z28	X29	Y29	Z29	X30	Y30	Z30	X31	Y31	Z31	X32	Y32	Z32	X33	Y33	Z33	X34	Y34	Z34	X35	Y35	Z35	X36	Y36	Z36	X37	Y37	Z37	X38	Y38	Z38	X39	Y39	Z39	X40	Y40	Z40	X41	Y41	Z41	X42	Y42	Z42	X43	Y43	Z43	X44	Y44	Z44	X45	Y45	Z45	X46	Y46	Z46	X47	Y47	Z47	X48	Y48	Z48	X49	Y49	Z49	X50	Y50	Z50	X51	Y51	Z51	

431	4.30000000	-241.07156	613.18223	-396.85800	-216.20182	466.93816	-375.78534	-296.80640	106.49327	-329.65502	-351.73179	73.41622	-394.02408	-165.75297	42.57768	-285.01280	-121.99912	65.83234	-334.32068	-261.64320	612.41097	-878.97841	-219.46878	413.00246	-885.88450	-319.62264	116.98604	-924.44055	-374.06009	76.49246	-864.62236	-184.50225	35.51008	-975.77054	-137.61500	63.77487	-919.78697	-223.84752	353.54731	-364.29421	-281.96089	473.31265	-342.75426	-294.26208	362.41572	-323.27666	-289.73764	432.35093	-937.37902	-305.97469	313.79062	-935.44034	-251.11302	913.74375	-416.90516	-220.75459	807.61887	-399.89949	-277.28831	768.73924	-391.51408	-355.30573	882.12572	-445.43988	-326.10837	769.63275	-420.20607	-225.95324	913.67305	-846.19769	-214.08692	780.58519	-861.96967	-335.49759	909.21389	-860.63471	-319.64169	773.58327	-881.43722	-238.41331	1173.58307	-503.49367	-426.24714	1188.08418	-591.62107	-243.50979	1169.81005	-773.01890	-426.69016	1192.17340	-683.03136	-328.11641	1684.73354	-640.20552	-245.56357	1646.40463	-471.97031	-286.86131	1675.13611	-804.12054	-187.74376	1595.34828	-618.42280	-188.98342	1594.35869	-666.44577	-264.02245	1394.88574	-366.76129	-369.40286	1278.88540	-348.35105	-310.06394	1306.55235	-290.59965	-170.89940	1281.26108	-449.43538	-121.56661	1278.69717	-519.59433	-107.16755	1248.86518	-500.35690	-277.09543	1403.13121	-904.10430	-376.75545	1313.06324	-905.75719	-311.20071	1327.63169	-960.26214	-161.14837	1303.58234	-820.62050	-120.68042	1302.25826	-759.23907	-107.66143	1281.19526	-782.78188	-308.93067	1072.04425	-539.24167	-316.60484	1073.58543	-736.56336	-300.20761	1078.90408	-545.75410	-301.06962	1086.85544	-723.50965	
432	4.31000000	-238.31913	613.40401	-396.12486	-213.50175	466.91759	-375.56010	-296.69442	106.86155	-329.72267	-351.69087	73.67733	-394.20671	-165.75963	42.89203	-285.30788	-121.88703	66.07593	-334.64377	-259.97420	612.40228	-879.37204	-218.08929	412.74979	-885.77934	-319.36836	117.19145	-924.19512	-374.04409	76.58999	-864.50328	-184.48790	36.07909	-975.95987	-137.59344	63.84236	-919.39874	-221.93300	353.52071	-364.31118	-279.14441	473.75378	-342.22055	-291.89820	362.76337	-322.75129	-288.37740	432.35370	-937.23029	-305.03591	313.96488	-935.29156	-254.56632	913.25725	-416.64336	-222.56657	807.64976	-399.57247	-278.29106	767.89638	-391.08056	-358.42581	879.82210	-444.79977	-327.22230	767.94947	-419.52251	-229.00419	913.77093	-845.84649	-214.97712	780.84057	-861.98599	-338.43750	907.76628	-861.14377	-320.36040	772.50086	-882.56856	-244.26007	1171.00387	-503.27855	-431.53800	1188.66559	-591.72868	-248.75323	1167.90206	-772.81312	-431.70060	1192.94242	-683.17500	-323.32403	1683.65454	-640.04482	-241.91092	1643.44516	-471.09250	-281.47051	1672.28818	-804.61787	-184.48310	1592.34043	-617.93584	-185.43259	1591.26598	-665.75065	-258.97629	1391.28570	-367.65904	-363.62976	1274.68061	-348.93301	-304.50724	1302.49382	-291.18329	-165.11978	1277.46906	-450.07747	-115.84852	1274.75268	-519.92912	-101.36588	1245.09160	-500.62101	-271.38636	1399.93019	-903.15465	-370.73841	1309.47273	-904.81158	-305.03399	1324.08364	-959.30921	-155.17122	1300.11446	-819.37152	-114.70374	1298.87747	-757.76967	-101.80462	1277.66152	-781.31320	-316.22741	1070.66626	-539.38819	-323.42631	1072.76211	-736.72214	-307.42395	1077.44163	-545.87098	-307.74024	1085.75380	-723.60623	
433	4.32000000	-235.16658	613.64610	-395.37642	-210.40266	466.96433	-375.28011	-296.32091	107.41034	-329.96638	-351.57179	74.12607	-394.50252	-165.71965	43.10213	-285.87048	-121.71044	66.43453	-335.06196	-258.01672	612.56505	-879.98061	-216.54376	412.61580	-885.70647	-319.05006	117.49529	-923.93782	-373.99985	76.84196	-864.43312	-184.45756	36.50860	-975.95094	-137.53405	63.97401	-919.16159	-219.70105	353.56694	-364.46530	-275.89268	474.32094	-341.71525	-289.17263	363.24500	-322.27614	-286.92595	432.51027	-936.86544	-304.01250	314.21524	-935.14465	-258.11296	912.96877	-416.18055	-224.03813	807.76092	-399.21263	-278.90007	767.00446	-390.61212	-361.44502	877.34515	-443.91355	-328.02830	766.11344	-418.61473	-232.25482	913.81731	-845.35369	-215.83704	781.24305	-861.72927	-341.24204	906.33854	-862.07921	-320.94415	771.26435	-883.41855	-251.02835	1168.27105	-503.50218	-437.24489	1189.46800	-591.93179	-254.65711	1166.16661	-772.86947	-437.05347	1193.95104	-683.32880	-318.03562	1682.18732	-639.56742	-237.45050	1640.32621	-470.12363	-275.26572	1669.21187	-804.91808	-180.83397	1588.99432	-617.36929	-181.59437	1587.89763	-664.74253	-253.65683	1387.71051	-368.61545	-357.79593	1270.44390	-349.79242	-298.76315	1298.28718	-291.88792	-158.97402	1273.59175	-450.69515	-109.53540	1270.77199	-520.34064	-95.15572	1241.17031	-500.95955	-265.20581	1396.67243	-901.98110	-364.33698	1306.03578	-904.01411	-298.56876	1320.47542	-958.25274	-148.84486	1296.51274	-818.10245	-108.40599	1295.32136	-756.28390	-95.55635	1274.00107	-779.85325	-324.26665	1069.28574	-539.88359	-331.00488	1072.18765	-737.22295	-315.59870	1076.17514	-546.46622	-315.22566	1084.88664	-724.05670	
434	4.33000000	-231.89195	613.72774	-394.65534	-207.24287	466.93598	-374.99770	-295.88432	107.92090	-330.54693	-351.39918	74.59826	-394.83296	-165.63910	43.39460	-286.44298	-121.70363	67.02135	-335.31056	-255.87251	612.70242	-880.76510	-214.95222	412.50957	-885.68149	-318.69629	117.80535	-923.73145	-373.92955	77.22294	-864.47080	-184.42067	36.73783	-975.69868	-137.46444	64.14558	-918.97032	-217.39649	353.57718	-364.60695	-272.57374	474.74640	-341.24568	-287.07795	364.21488	-321.99716	-285.36472	432.74077	-936.69083	-303.01343	314.34582	-934.95053	-261.71650	912.37878	-415.56498	-225.17882	807.84596	-398.73241	-279.17652	765.86556	-389.86165	-364.40036	874.47463	-442.79155	-328.47288	763.99081	-417.51037	-235.71753	913.78467	-844.90376	-216.76320	781.65602	-861.19671	-344.17447	904.60346	-863.10590	-321.34078	769.90053	-884.43570	-258.19569	1165.45146	-503.75626	-443.21791	1190.27465	-592.04662	-261.14877	1164.26853	-772.90032	-442.65997	1195.01399	-683.43372	-312.40909	1680.00655	-638.96722	-232.28999	1636.67656	-469.48420	-268.39330	1665.85326	-804.84943	-176.91917	1585.02497	-616.71425	-177.39875	1583.87471	-663.57511	-248.14272	1384.03234	-369.41607	-351.77597	1266.02489	-350.81603	-292.85584	1293.91142	-292.69524	-152.55997	1269.58713	-451.23214	-102.87418	1266.58098	-520.71627	-88.59029	1237.06829	-501.25143	-258.58993	1393.22216	-900.85552	-357.55228	1302.55397	-903.29072	-291.72314	1316.77138	-957.18368	-142.22535	1292.74947	-816.73150	-101.66003	1291.65989	-754.98751	-88.99861	1270.03747	-778.44530	-332.75886	1067.88980	-540.34249	-339.12624	1071.56246	-737.68205	-324.25082	1074.79719	-547.13803	-323.16772	1083.99724	-724.54323	
